# xmcd
#
# Track frame offsets:
#	182
#	18902
#	36670
#	48507
#	62297
#	79252
#	107005
#	119087
#	146547
#	162450
#	196895
#
# Disc length: 2809 seconds
#
# Revision: 4
# Processed by: cddbd v1.5.1PL2 Copyright (c) Steve Scherf et al.
# Submitted via: dBpowerAMP V4.0
#
DISCID=980af70b
DTITLE=Hendrix Jimi - The Magic Collection
DYEAR=1968
DGENRE=Rock
TTITLE0=Good Feeling
TTITLE1=Hot Tigger
TTITLE2=Psycho
TTITLE3=Come On Baby Pt. 1
TTITLE4=Come On Baby Pt. 2
TTITLE5=Night Life
TTITLE6=You Got It
TTITLE7=Woke Up In The Morning
TTITLE8=Lime Lime
TTITLE9=Peoples People
TTITLE10=Whoa'eeh
EXTD=
EXTT0=
EXTT1=
EXTT2=
EXTT3=
EXTT4=
EXTT5=
EXTT6=
EXTT7=
EXTT8=
EXTT9=
EXTT10=
PLAYORDER=
